<mxfile host="app.diagrams.net" modified="2024-01-28T09:46:32.564Z" agent="Mozilla/5.0 (Windows NT 10.0; Win64; x64) AppleWebKit/537.36 (KHTML, like Gecko) Chrome/102.0.0.0 Safari/537.36" version="23.0.1" etag="9fH4zd6pWY7rrjIpWDYz" type="github">
  <diagram name="第 1 页" id="5eSOIysonCDDHDKz4wgd">
    <mxGraphModel>
      <root>
        <mxCell id="0" />
        <mxCell id="1" parent="0" />
      </root>
    </mxGraphModel>
  </diagram>
</mxfile>
